# xmcd
#
# Track frame offsets:
#   150
#   15389
#   29870
#   45495
#   61373
#   77431
#   93595
#   106822
#   119765
#   134601
#   151145
#   166080
#   182865
#   198429
#   213033
#
# Disc length: 3045 seconds
#
# Revision: 0
# Processed by: cddbd v1.5.2PL0 Copyright (c) Steve Scherf et al.
# Submitted via: uFREEDB ActiveX Control 1.5
#
DISCID=c40be30f
DTITLE=Edson and Hudson - na arena ao vivo
DYEAR=1900
DGENRE=Country
TTITLE0=assovia
TTITLE1=solidao aqui ja era
TTITLE2=fala
TTITLE3=galera coraçao
TTITLE4=ta no meu coraçao
TTITLE5=imprevisivel
TTITLE6=hoje eu posso chorar
TTITLE7=fui buscar
TTITLE8=ela encasquetou
TTITLE9=eu quero mais
TTITLE10=Foi Deus Wilson and Roberta
TTITLE11=vamos fazer festa
TTITLE12=eu nao sei dizer que eu nao te amo
TTITLE13=nao sou eu quem te faz sonhar
TTITLE14=solte a garganta
EXTD=
EXTT0=
EXTT1=
EXTT2=
EXTT3=
EXTT4=
EXTT5=
EXTT6=
EXTT7=
EXTT8=
EXTT9=
EXTT10=
EXTT11=
EXTT12=
EXTT13=
EXTT14=
PLAYORDER=
